<?xml version="1.0" standalone="no"?>
<!DOCTYPE svg PUBLIC "-//W3C//DTD SVG 20010904//EN"
 "http://www.w3.org/TR/2001/REC-SVG-20010904/DTD/svg10.dtd">
<svg version="1.0" xmlns="http://www.w3.org/2000/svg"
 width="512.000000pt" height="512.000000pt" viewBox="0 0 512.000000 512.000000"
 preserveAspectRatio="xMidYMid meet">
<metadata>
Created by potrace 1.11, written by Peter Selinger 2001-2013
</metadata>
<g transform="translate(0.000000,512.000000) scale(0.100000,-0.100000)"
fill="#000000" stroke="none">
<path d="M2625 3645 c-170 -31 -290 -95 -418 -222 -387 -382 -471 -1183 -173
-1632 68 -103 178 -201 277 -250 113 -55 182 -71 309 -71 159 0 270 34 394
119 101 70 191 202 236 346 46 149 37 383 -22 526 -132 325 -488 477 -840 359
-111 -37 -175 -75 -245 -143 -63 -61 -64 -58 -32 96 42 210 126 375 254 504
63 63 99 91 156 118 104 49 203 68 307 60 72 -5 197 -35 253 -59 13 -6 23 10
53 85 20 50 35 93 33 95 -2 2 -33 15 -70 29 -138 52 -325 68 -472 40z m132
-999 c130 -41 241 -157 285 -299 29 -93 31 -253 4 -342 -43 -143 -124 -246
-236 -299 -53 -24 -81 -31 -153 -34 -160 -8 -275 42 -390 169 -111 121 -198
348 -182 475 19 159 164 293 366 339 79 18 233 13 306 -9z"/>
</g>
</svg>
